# Tiled2Unity generated file. Do not modify by hand.
# Wavefront file for 'slum_ditch_mesh_0002.obj'

# Vertices (Count = 12)
v -16 -48 0
v -32 -48 0
v -32 -32 0
v -16 -32 0
v -48 -32 0
v -64 -32 0
v -64 -16 0
v -48 -16 0
v 0 -16 0
v -16 -16 0
v -16 0 0
v 0 0 0

# Texture cooridinates (Count = 12)
vt 0.375 0.7333333
vt 0.5 0.7333333
vt 0.5 0.8
vt 0.375 0.8
vt 0 0.4666666
vt 0.125 0.4666666
vt 0.125 0.5333333
vt 0 0.5333333
vt 0.625 0.4666666
vt 0.75 0.4666666
vt 0.75 0.5333333
vt 0.625 0.5333333

# Normal
vn 0 0 -1

# Mesh description
g slum_ditch_mesh_0002

# Faces
f 1/1/1 2/2/1 3/3/1 4/4/1
f 5/5/1 6/6/1 7/7/1 8/8/1
f 9/9/1 10/10/1 11/11/1 12/12/1

