# Tiled2Unity generated file. Do not modify by hand.
# Wavefront file for 'town_mesh_0004.obj'

# Vertices (Count = 160)
v -576 -464 0
v -592 -464 0
v -592 -448 0
v -576 -448 0
v -304 -464 0
v -320 -464 0
v -320 -448 0
v -304 -448 0
v -496 -176 0
v -512 -176 0
v -512 -160 0
v -496 -160 0
v -560 -160 0
v -576 -160 0
v -576 -144 0
v -560 -144 0
v -432 -160 0
v -448 -160 0
v -448 -144 0
v -432 -144 0
v -560 -144 0
v -576 -144 0
v -576 -128 0
v -560 -128 0
v -384 -144 0
v -400 -144 0
v -400 -128 0
v -384 -128 0
v -768 -128 0
v -784 -128 0
v -784 -112 0
v -768 -112 0
v -752 -128 0
v -768 -128 0
v -768 -112 0
v -752 -112 0
v -736 -128 0
v -752 -128 0
v -752 -112 0
v -736 -112 0
v -720 -128 0
v -736 -128 0
v -736 -112 0
v -720 -112 0
v -704 -128 0
v -720 -128 0
v -720 -112 0
v -704 -112 0
v -688 -128 0
v -704 -128 0
v -704 -112 0
v -688 -112 0
v -672 -128 0
v -688 -128 0
v -688 -112 0
v -672 -112 0
v -768 -112 0
v -784 -112 0
v -784 -96 0
v -768 -96 0
v -736 -112 0
v -752 -112 0
v -752 -96 0
v -736 -96 0
v -704 -112 0
v -720 -112 0
v -720 -96 0
v -704 -96 0
v -672 -112 0
v -688 -112 0
v -688 -96 0
v -672 -96 0
v -784 -64 0
v -800 -64 0
v -800 -48 0
v -784 -48 0
v -768 -64 0
v -784 -64 0
v -784 -48 0
v -768 -48 0
v -752 -64 0
v -768 -64 0
v -768 -48 0
v -752 -48 0
v -736 -64 0
v -752 -64 0
v -752 -48 0
v -736 -48 0
v -720 -64 0
v -736 -64 0
v -736 -48 0
v -720 -48 0
v -704 -64 0
v -720 -64 0
v -720 -48 0
v -704 -48 0
v -688 -64 0
v -704 -64 0
v -704 -48 0
v -688 -48 0
v -672 -64 0
v -688 -64 0
v -688 -48 0
v -672 -48 0
v -656 -64 0
v -672 -64 0
v -672 -48 0
v -656 -48 0
v -640 -64 0
v -656 -64 0
v -656 -48 0
v -640 -48 0
v -624 -64 0
v -640 -64 0
v -640 -48 0
v -624 -48 0
v -608 -64 0
v -624 -64 0
v -624 -48 0
v -608 -48 0
v -592 -64 0
v -608 -64 0
v -608 -48 0
v -592 -48 0
v -576 -64 0
v -592 -64 0
v -592 -48 0
v -576 -48 0
v -560 -64 0
v -576 -64 0
v -576 -48 0
v -560 -48 0
v -544 -64 0
v -560 -64 0
v -560 -48 0
v -544 -48 0
v -528 -64 0
v -544 -64 0
v -544 -48 0
v -528 -48 0
v -512 -64 0
v -528 -64 0
v -528 -48 0
v -512 -48 0
v -752 -48 0
v -768 -48 0
v -768 -32 0
v -752 -32 0
v -512 -48 0
v -528 -48 0
v -528 -32 0
v -512 -32 0
v -512 -32 0
v -528 -32 0
v -528 -16 0
v -512 -16 0
v -512 -16 0
v -528 -16 0
v -528 0 0
v -512 0 0

# Texture cooridinates (Count = 31)
vt 0.875 0.6
vt 1 0.6
vt 1 0.6666666
vt 0.875 0.6666666
vt 0.125 0.6666666
vt 0.25 0.6666666
vt 0.25 0.7333333
vt 0.125 0.7333333
vt 0.25 0.4666666
vt 0.125 0.4666666
vt 0.125 0.5333333
vt 0.25 0.5333333
vt 0.5 0.8
vt 0.625 0.8
vt 0.625 0.8666667
vt 0.5 0.8666667
vt 0.625 0.5333333
vt 0.75 0.5333333
vt 0.75 0.6
vt 0.625 0.6
vt 0.875 0.5333333
vt 1 0.5333333
vt 0.75 0.6666666
vt 0.625 0.6666666
vt 0.125 0.6
vt 0.25 0.6
vt 0 0.6
vt 0 0.6666666
vt 0.375 0.5333333
vt 0.375 0.6
vt 0 0.7333333

# Normal
vn 0 0 -1

# Mesh description
g town_mesh_0004

# Faces
f 1/1/1 2/2/1 3/3/1 4/4/1
f 5/1/1 6/2/1 7/3/1 8/4/1
f 9/5/1 10/6/1 11/7/1 12/8/1
f 13/9/1 14/10/1 15/11/1 16/12/1
f 17/13/1 18/14/1 19/15/1 20/16/1
f 21/13/1 22/14/1 23/15/1 24/16/1
f 25/13/1 26/14/1 27/15/1 28/16/1
f 29/17/1 30/18/1 31/19/1 32/20/1
f 33/21/1 34/22/1 35/2/1 36/1/1
f 37/17/1 38/18/1 39/19/1 40/20/1
f 41/21/1 42/22/1 43/2/1 44/1/1
f 45/17/1 46/18/1 47/19/1 48/20/1
f 49/21/1 50/22/1 51/2/1 52/1/1
f 53/17/1 54/18/1 55/19/1 56/20/1
f 57/20/1 58/19/1 59/23/1 60/24/1
f 61/20/1 62/19/1 63/23/1 64/24/1
f 65/20/1 66/19/1 67/23/1 68/24/1
f 69/20/1 70/19/1 71/23/1 72/24/1
f 73/25/1 74/26/1 75/6/1 76/5/1
f 77/25/1 78/26/1 79/6/1 80/5/1
f 81/25/1 82/26/1 83/6/1 84/5/1
f 85/25/1 86/26/1 87/6/1 88/5/1
f 89/25/1 90/26/1 91/6/1 92/5/1
f 93/25/1 94/26/1 95/6/1 96/5/1
f 97/25/1 98/26/1 99/6/1 100/5/1
f 101/25/1 102/26/1 103/6/1 104/5/1
f 105/25/1 106/26/1 107/6/1 108/5/1
f 109/25/1 110/26/1 111/6/1 112/5/1
f 113/25/1 114/26/1 115/6/1 116/5/1
f 117/25/1 118/26/1 119/6/1 120/5/1
f 121/25/1 122/26/1 123/6/1 124/5/1
f 125/25/1 126/26/1 127/6/1 128/5/1
f 129/25/1 130/26/1 131/6/1 132/5/1
f 133/25/1 134/26/1 135/6/1 136/5/1
f 137/25/1 138/26/1 139/6/1 140/5/1
f 141/27/1 142/25/1 143/5/1 144/28/1
f 145/12/1 146/29/1 147/30/1 148/26/1
f 149/28/1 150/5/1 151/8/1 152/31/1
f 153/28/1 154/5/1 155/8/1 156/31/1
f 157/28/1 158/5/1 159/8/1 160/31/1

