# Tiled2Unity generated file. Do not modify by hand.
# Wavefront file for 'town_mesh_0003.obj'

# Vertices (Count = 128)
v -720 -784 0
v -736 -784 0
v -736 -768 0
v -720 -768 0
v -80 -784 0
v -96 -784 0
v -96 -768 0
v -80 -768 0
v -720 -768 0
v -736 -768 0
v -736 -752 0
v -720 -752 0
v -80 -768 0
v -96 -768 0
v -96 -752 0
v -80 -752 0
v -720 -752 0
v -736 -752 0
v -736 -736 0
v -720 -736 0
v -80 -752 0
v -96 -752 0
v -96 -736 0
v -80 -736 0
v -720 -736 0
v -736 -736 0
v -736 -720 0
v -720 -720 0
v -80 -736 0
v -96 -736 0
v -96 -720 0
v -80 -720 0
v -720 -720 0
v -736 -720 0
v -736 -704 0
v -720 -704 0
v -80 -720 0
v -96 -720 0
v -96 -704 0
v -80 -704 0
v -720 -704 0
v -736 -704 0
v -736 -688 0
v -720 -688 0
v -80 -704 0
v -96 -704 0
v -96 -688 0
v -80 -688 0
v -720 -688 0
v -736 -688 0
v -736 -672 0
v -720 -672 0
v -80 -688 0
v -96 -688 0
v -96 -672 0
v -80 -672 0
v -720 -672 0
v -736 -672 0
v -736 -656 0
v -720 -656 0
v -80 -672 0
v -96 -672 0
v -96 -656 0
v -80 -656 0
v -720 -656 0
v -736 -656 0
v -736 -640 0
v -720 -640 0
v -80 -656 0
v -96 -656 0
v -96 -640 0
v -80 -640 0
v -720 -640 0
v -736 -640 0
v -736 -624 0
v -720 -624 0
v -80 -640 0
v -96 -640 0
v -96 -624 0
v -80 -624 0
v -720 -624 0
v -736 -624 0
v -736 -608 0
v -720 -608 0
v -80 -624 0
v -96 -624 0
v -96 -608 0
v -80 -608 0
v -720 -608 0
v -736 -608 0
v -736 -592 0
v -720 -592 0
v -80 -608 0
v -96 -608 0
v -96 -592 0
v -80 -592 0
v -80 -592 0
v -96 -592 0
v -96 -576 0
v -80 -576 0
v -80 -576 0
v -96 -576 0
v -96 -560 0
v -80 -560 0
v -80 -560 0
v -96 -560 0
v -96 -544 0
v -80 -544 0
v -80 -544 0
v -96 -544 0
v -96 -528 0
v -80 -528 0
v -64 -544 0
v -80 -544 0
v -80 -528 0
v -64 -528 0
v -48 -544 0
v -64 -544 0
v -64 -528 0
v -48 -528 0
v -32 -544 0
v -48 -544 0
v -48 -528 0
v -32 -528 0
v -16 -544 0
v -32 -544 0
v -32 -528 0
v -16 -528 0

# Texture cooridinates (Count = 12)
vt 0.4555785 0.06463879
vt 0.4555785 0.09505701
vt 0.4390496 0.09505701
vt 0.4390496 0.06463879
vt 0.6663223 0.7110266
vt 0.6663223 0.7414448
vt 0.6497934 0.7414448
vt 0.6497934 0.7110266
vt 0.4566116 0.2908745
vt 0.4731405 0.2908745
vt 0.4731405 0.3212928
vt 0.4566116 0.3212928

# Normal
vn 0 0 -1

# Mesh description
g town_mesh_0003

# Faces
f 1/1/1 2/2/1 3/3/1 4/4/1
f 5/1/1 6/2/1 7/3/1 8/4/1
f 9/1/1 10/2/1 11/3/1 12/4/1
f 13/1/1 14/2/1 15/3/1 16/4/1
f 17/1/1 18/2/1 19/3/1 20/4/1
f 21/1/1 22/2/1 23/3/1 24/4/1
f 25/1/1 26/2/1 27/3/1 28/4/1
f 29/5/1 30/6/1 31/7/1 32/8/1
f 33/1/1 34/2/1 35/3/1 36/4/1
f 37/1/1 38/2/1 39/3/1 40/4/1
f 41/1/1 42/2/1 43/3/1 44/4/1
f 45/1/1 46/2/1 47/3/1 48/4/1
f 49/1/1 50/2/1 51/3/1 52/4/1
f 53/1/1 54/2/1 55/3/1 56/4/1
f 57/1/1 58/2/1 59/3/1 60/4/1
f 61/1/1 62/2/1 63/3/1 64/4/1
f 65/1/1 66/2/1 67/3/1 68/4/1
f 69/1/1 70/2/1 71/3/1 72/4/1
f 73/1/1 74/2/1 75/3/1 76/4/1
f 77/1/1 78/2/1 79/3/1 80/4/1
f 81/1/1 82/2/1 83/3/1 84/4/1
f 85/1/1 86/2/1 87/3/1 88/4/1
f 89/1/1 90/2/1 91/3/1 92/4/1
f 93/1/1 94/2/1 95/3/1 96/4/1
f 97/1/1 98/2/1 99/3/1 100/4/1
f 101/1/1 102/2/1 103/3/1 104/4/1
f 105/1/1 106/2/1 107/3/1 108/4/1
f 109/9/1 110/10/1 111/11/1 112/12/1
f 113/4/1 114/1/1 115/2/1 116/3/1
f 117/4/1 118/1/1 119/2/1 120/3/1
f 121/4/1 122/1/1 123/2/1 124/3/1
f 125/4/1 126/1/1 127/2/1 128/3/1

